<svg width="14" height="14" viewBox="0 0 14 14" fill="currentColor" xmlns="http://www.w3.org/2000/svg">
<path d="M6.3335 6.33334V3.66668H7.66683V6.33334H10.3335V7.66668H7.66683V10.3333H6.3335V7.66668H3.66683V6.33334H6.3335ZM7.00016 13.6667C3.31816 13.6667 0.333496 10.682 0.333496 7.00001C0.333496 3.31801 3.31816 0.333344 7.00016 0.333344C10.6822 0.333344 13.6668 3.31801 13.6668 7.00001C13.6668 10.682 10.6822 13.6667 7.00016 13.6667ZM7.00016 12.3333C8.41465 12.3333 9.77121 11.7714 10.7714 10.7712C11.7716 9.77105 12.3335 8.4145 12.3335 7.00001C12.3335 5.58552 11.7716 4.22897 10.7714 3.22877C9.77121 2.22858 8.41465 1.66668 7.00016 1.66668C5.58567 1.66668 4.22912 2.22858 3.22893 3.22877C2.22873 4.22897 1.66683 5.58552 1.66683 7.00001C1.66683 8.4145 2.22873 9.77105 3.22893 10.7712C4.22912 11.7714 5.58567 12.3333 7.00016 12.3333V12.3333Z"/>
</svg>
