<svg width="22" height="20" viewBox="0 0 22 20" fill="none" xmlns="http://www.w3.org/2000/svg">
<g clip-path="url(#clip0_539_1686)">
<path d="M17.875 8.125C18.422 8.125 18.9466 8.32254 19.3334 8.67417C19.7202 9.0258 19.9375 9.50272 19.9375 10C19.9375 10.4973 19.7202 10.9742 19.3334 11.3258C18.9466 11.6775 18.422 11.875 17.875 11.875C17.328 11.875 16.8034 11.6775 16.4166 11.3258C16.0298 10.9742 15.8125 10.4973 15.8125 10C15.8125 9.50272 16.0298 9.0258 16.4166 8.67417C16.8034 8.32254 17.328 8.125 17.875 8.125ZM11 8.125C11.547 8.125 12.0716 8.32254 12.4584 8.67417C12.8452 9.0258 13.0625 9.50272 13.0625 10C13.0625 10.4973 12.8452 10.9742 12.4584 11.3258C12.0716 11.6775 11.547 11.875 11 11.875C10.453 11.875 9.92839 11.6775 9.54159 11.3258C9.1548 10.9742 8.9375 10.4973 8.9375 10C8.9375 9.50272 9.1548 9.0258 9.54159 8.67417C9.92839 8.32254 10.453 8.125 11 8.125V8.125ZM4.125 8.125C4.67201 8.125 5.19661 8.32254 5.58341 8.67417C5.9702 9.02581 6.1875 9.50272 6.1875 10C6.1875 10.4973 5.9702 10.9742 5.58341 11.3258C5.19661 11.6775 4.67201 11.875 4.125 11.875C3.57799 11.875 3.05339 11.6775 2.66659 11.3258C2.2798 10.9742 2.0625 10.4973 2.0625 10C2.0625 9.50272 2.2798 9.02581 2.66659 8.67417C3.05339 8.32254 3.57799 8.125 4.125 8.125V8.125Z" fill="#EDF0FF"/>
</g>
<defs>
<clipPath id="clip0_539_1686">
<rect width="20" height="22" fill="white" transform="translate(0 20) rotate(-90)"/>
</clipPath>
</defs>
</svg>
