<svg width="42" height="30" viewBox="0 0 42 30" fill="none" xmlns="http://www.w3.org/2000/svg">
<path d="M1.12134 19.5679H1.22328L1.12134 29.6724V19.5679Z" fill="#F9FAFF"/>
<path d="M28.3398 1.37973C28.1359 7.94768 26.5049 15.425 23.5485 19.5679C22.8349 20.5783 22.1214 21.5888 21.2039 22.3972C16.4126 27.1463 9.68446 29.5714 1.01941 29.5714L1.12135 19.4668C11.6214 19.4668 16.9223 13.4041 16.9223 1.27869" fill="#F9FAFF"/>
<path d="M1.22328 19.5679L1.12134 29.6724V19.5679H1.22328Z" fill="#F9FAFF"/>
<path d="M42 19.5679V29.6724H16.7184C20.3883 28.3588 23.6505 26.4389 26.301 23.7107C27.5243 22.4982 28.6456 21.0836 29.5631 19.5679H42Z" fill="#F9FAFF"/>
<path d="M6.1165 12.7978C9.49456 12.7978 12.233 10.0834 12.233 6.73508C12.233 3.38673 9.49456 0.672363 6.1165 0.672363C2.73845 0.672363 0 3.38673 0 6.73508C0 10.0834 2.73845 12.7978 6.1165 12.7978Z" fill="#F9FAFF"/>
</svg>
