<svg width="42" height="29" viewBox="0 0 42 29" fill="none" xmlns="http://www.w3.org/2000/svg">
<path d="M1.12109 18.8955H1.22304L1.12109 29V18.8955Z" fill="url(#paint0_linear_386_1128)"/>
<path d="M28.3399 0.707246C28.136 7.27519 26.505 14.7525 23.5487 18.8954C22.8351 19.9059 22.1215 20.9163 21.204 21.7247C16.4127 26.4738 9.68458 28.8989 1.01953 28.8989L1.12147 18.7944C11.6215 18.7944 16.9224 12.7316 16.9224 0.606201" fill="url(#paint1_linear_386_1128)"/>
<path d="M1.22304 18.8955L1.12109 29V18.8955H1.22304Z" fill="url(#paint2_linear_386_1128)"/>
<path d="M42.0003 18.8955V29H16.7188C20.3887 27.6864 23.6508 25.7666 26.3013 23.0384C27.5246 21.8258 28.6459 20.4112 29.5634 18.8955H42.0003Z" fill="url(#paint3_linear_386_1128)"/>
<path d="M6.1165 12.1254C9.49456 12.1254 12.233 9.41106 12.233 6.06272C12.233 2.71437 9.49456 0 6.1165 0C2.73845 0 0 2.71437 0 6.06272C0 9.41106 2.73845 12.1254 6.1165 12.1254Z" fill="url(#paint4_linear_386_1128)"/>
<defs>
<linearGradient id="paint0_linear_386_1128" x1="1.17206" y1="18.8955" x2="1.17206" y2="29" gradientUnits="userSpaceOnUse">
<stop stop-color="#8C62E7"/>
<stop offset="1" stop-color="#405AE0"/>
</linearGradient>
<linearGradient id="paint1_linear_386_1128" x1="14.6797" y1="0.606201" x2="14.6797" y2="28.8989" gradientUnits="userSpaceOnUse">
<stop stop-color="#8C62E7"/>
<stop offset="1" stop-color="#405AE0"/>
</linearGradient>
<linearGradient id="paint2_linear_386_1128" x1="1.17206" y1="18.8955" x2="1.17206" y2="29" gradientUnits="userSpaceOnUse">
<stop stop-color="#8C62E7"/>
<stop offset="1" stop-color="#405AE0"/>
</linearGradient>
<linearGradient id="paint3_linear_386_1128" x1="29.3595" y1="18.8955" x2="29.3595" y2="29" gradientUnits="userSpaceOnUse">
<stop stop-color="#8C62E7"/>
<stop offset="1" stop-color="#405AE0"/>
</linearGradient>
<linearGradient id="paint4_linear_386_1128" x1="6.1165" y1="0" x2="6.1165" y2="12.1254" gradientUnits="userSpaceOnUse">
<stop stop-color="#8C62E7"/>
<stop offset="1" stop-color="#405AE0"/>
</linearGradient>
</defs>
</svg>
